<svg width="155" height="95" viewBox="0 0 155 95" fill="none" xmlns="http://www.w3.org/2000/svg">
<rect x="123" y="71.9038" width="8" height="42" rx="2" transform="rotate(180 123 71.9038)" fill="#11659A"/>
<path d="M35.8585 39.4087C37.8308 39.5089 39.3995 41.14 39.3995 43.1372V46.5474L42.5236 44.728C44.3047 43.6902 46.5908 44.2915 47.629 46.0728C48.667 47.854 48.0643 50.1401 46.2833 51.1782H46.2823L42.9318 53.1284L46.0441 55.02C47.8062 56.0906 48.3655 58.388 47.295 60.1499C46.2578 61.8563 44.0715 62.4351 42.3341 61.4966L42.1671 61.4019L39.3995 59.7192V63.0093C39.3994 65.0063 37.8307 66.6375 35.8585 66.7378L35.6661 66.7427C33.6044 66.7427 31.9329 65.0709 31.9327 63.0093V59.5396L29.1134 61.1831C27.3319 62.2211 25.0459 61.6185 24.0079 59.8374C22.9701 58.0563 23.5726 55.7711 25.3536 54.7329L28.3312 52.9966L25.3156 51.1646C23.5534 50.0939 22.9932 47.7966 24.0636 46.0347C25.1342 44.2727 27.4305 43.7122 29.1925 44.7827L31.9327 46.4468V43.1372C31.9327 41.0754 33.6044 39.4038 35.6661 39.4038L35.8585 39.4087ZM64.67 39.4087C66.6426 39.5086 68.2111 41.1398 68.2111 43.1372V46.5483L71.3361 44.728C73.1172 43.6902 75.4034 44.2914 76.4415 46.0728C77.4796 47.8542 76.8761 50.1402 75.0948 51.1782L71.7433 53.1284L74.8556 55.02C76.6177 56.0906 77.178 58.388 76.1075 60.1499C75.037 61.9114 72.7414 62.4718 70.9796 61.4019L68.2111 59.7192V63.0093C68.2109 65.0065 66.6426 66.6379 64.67 66.7378L64.4777 66.7427C62.4162 66.7424 60.7444 65.0707 60.7443 63.0093V59.5396L57.9249 61.1831C56.1435 62.2211 53.8585 61.6184 52.8204 59.8374C51.7825 58.0562 52.3849 55.7711 54.1661 54.7329L57.1437 52.9966L54.1281 51.1646C52.3659 50.0939 51.8057 47.7966 52.8761 46.0347C53.9466 44.2729 56.2422 43.7126 58.004 44.7827L60.7443 46.4468V43.1372C60.7443 41.0756 62.4161 39.4041 64.4777 39.4038L64.67 39.4087ZM94.67 39.4087C96.6427 39.5086 98.212 41.1398 98.212 43.1372V46.5474L101.336 44.728C103.117 43.6902 105.403 44.2914 106.442 46.0728C107.48 47.8542 106.876 50.1402 105.095 51.1782L101.743 53.1284L104.856 55.02C106.618 56.0906 107.178 58.388 106.108 60.1499C105.037 61.9113 102.741 62.4719 100.98 61.4019L98.212 59.7192V63.0093C98.2119 65.0065 96.6426 66.6379 94.67 66.7378L94.4786 66.7427C92.4169 66.7427 90.7454 65.0709 90.7452 63.0093V59.5396L87.9249 61.1831C86.1435 62.221 83.8584 61.6184 82.8204 59.8374C81.7825 58.0562 82.3849 55.7711 84.1661 54.7329L87.1437 52.9966L84.1281 51.1646C82.3659 50.0939 81.8057 47.7966 82.8761 46.0347C83.9466 44.2729 86.2422 43.7127 88.004 44.7827L90.7452 46.4478V43.1372C90.7452 41.0754 92.4169 39.4038 94.4786 39.4038L94.67 39.4087Z" fill="black" stroke="white"/>
<path d="M37.472 20.496V29.712C37.12 29.808 36.56 29.904 35.792 30C35.056 30.096 34.32 30.144 33.584 30.144C32.848 30.144 32.192 30.08 31.616 29.952C31.072 29.856 30.608 29.664 30.224 29.376C29.872 29.088 29.6 28.688 29.408 28.176C29.216 27.664 29.12 26.992 29.12 26.16V3.552C29.12 2.88 29.296 2.368 29.648 2.016C30.032 1.632 30.544 1.328 31.184 1.104C32.272 0.719999 33.536 0.447999 34.976 0.287999C36.416 0.0959997 37.952 0 39.584 0C44 0 47.328 0.928 49.568 2.784C51.808 4.64 52.928 7.152 52.928 10.32C52.928 12.304 52.416 14 51.392 15.408C50.368 16.816 49.152 17.904 47.744 18.672C48.896 20.24 50.032 21.712 51.152 23.088C52.272 24.464 53.152 25.712 53.792 26.832C53.472 27.952 52.88 28.816 52.016 29.424C51.184 30 50.24 30.288 49.184 30.288C48.48 30.288 47.872 30.208 47.36 30.048C46.848 29.888 46.4 29.664 46.016 29.376C45.632 29.088 45.28 28.736 44.96 28.32C44.64 27.904 44.336 27.456 44.048 26.976L40.016 20.496H37.472ZM40.496 14.112C41.712 14.112 42.672 13.808 43.376 13.2C44.08 12.56 44.432 11.632 44.432 10.416C44.432 9.2 44.032 8.288 43.232 7.68C42.464 7.04 41.232 6.72 39.536 6.72C39.056 6.72 38.672 6.736 38.384 6.768C38.096 6.8 37.776 6.848 37.424 6.912V14.112H40.496Z" fill="#F03F24"/>
<path fill-rule="evenodd" clip-rule="evenodd" d="M141 80.904H14V23.904H23V9.904H9C4.02944 9.904 0 13.9334 0 18.904V85.904L0.0117188 86.3669C0.252643 91.1223 4.18468 94.904 9 94.904H146L146.463 94.8923C151.218 94.6514 155 90.7193 155 85.904V18.904C155 14.0887 151.218 10.1566 146.463 9.91572L146 9.904H59V23.904H141V80.904Z" fill="#11659A"/>
</svg>
